<?xml version="1.0" standalone="no"?>
<!DOCTYPE svg PUBLIC "-//W3C//DTD SVG 20010904//EN"
 "http://www.w3.org/TR/2001/REC-SVG-20010904/DTD/svg10.dtd">
<svg version="1.0" xmlns="http://www.w3.org/2000/svg"
 width="50.000000pt" height="50.000000pt" viewBox="0 0 50.000000 50.000000"
 preserveAspectRatio="xMidYMid meet">

<g transform="translate(0.000000,50.000000) scale(0.100000,-0.100000)"
fill="#000000" stroke="none">
<path d="M70 250 l0 -230 180 0 180 0 0 168 0 168 -63 62 -63 62 -117 0 -117
0 0 -230z m285 150 l49 -50 -52 0 -52 0 0 50 c0 28 1 50 3 50 1 0 25 -22 52
-50z m-5 -130 c0 -6 -40 -10 -100 -10 -60 0 -100 4 -100 10 0 6 40 10 100 10
60 0 100 -4 100 -10z m-40 -60 c0 -6 -33 -10 -80 -10 -47 0 -80 4 -80 10 0 6
33 10 80 10 47 0 80 -4 80 -10z m40 -60 c0 -6 -40 -10 -100 -10 -60 0 -100 4
-100 10 0 6 40 10 100 10 60 0 100 -4 100 -10z"/>
</g>
</svg>
